<svg width="56" height="32" viewBox="0 0 56 32" fill="none" xmlns="http://www.w3.org/2000/svg">
<path d="M47.7002 24.8999H56.0001L28.3336 0L0.666992 24.8999H8.96696L28.3336 7.44231L47.7002 24.8999ZM14.5003 5.00765V0H6.20031V12.45L14.5003 5.00765Z" fill="#7C6A46"/>
<path d="M26.5133 23.7379C26.5133 24.4462 26.3473 25.0936 26.0153 25.6801C25.6943 26.2556 25.2019 26.7204 24.5379 27.0745C23.8849 27.4176 23.0826 27.5891 22.1309 27.5891H20.5207V31.5399H17.2671V19.8369H22.1309C23.0715 19.8369 23.8683 20.0029 24.5213 20.3349C25.1853 20.6669 25.6833 21.1262 26.0153 21.7127C26.3473 22.2992 26.5133 22.9743 26.5133 23.7379ZM21.8155 24.9995C22.734 24.9995 23.1933 24.579 23.1933 23.7379C23.1933 22.8858 22.734 22.4597 21.8155 22.4597H20.5207V24.9995H21.8155Z" fill="#7C6A46"/>
<path d="M39.2079 19.8369L35.1742 31.5399H31.0076L26.9572 19.8369H30.4432L33.0992 28.2863L35.7386 19.8369H39.2079Z" fill="#7C6A46"/>
</svg>
